<?xml version="1.0" encoding="UTF-8" standalone="no"?>
<svg
   width="750"
   height="276"
   viewBox="0 0 750 276"
   version="1.1"
   preserveAspectRatio="xMidYMid"
   id="svg6"
   sodipodi:docname="logo.svg"
   inkscape:version="1.1.2 (0a00cf5339, 2022-02-04)"
   xmlns:inkscape="http://www.inkscape.org/namespaces/inkscape"
   xmlns:sodipodi="http://sodipodi.sourceforge.net/DTD/sodipodi-0.dtd"
   xmlns:xlink="http://www.w3.org/1999/xlink"
   xmlns="http://www.w3.org/2000/svg"
   xmlns:svg="http://www.w3.org/2000/svg">
  <sodipodi:namedview
     id="namedview909"
     pagecolor="#505050"
     bordercolor="#eeeeee"
     borderopacity="1"
     inkscape:pageshadow="0"
     inkscape:pageopacity="0"
     inkscape:pagecheckerboard="0"
     showgrid="false"
     inkscape:zoom="1.36"
     inkscape:cx="381.61765"
     inkscape:cy="147.42647"
     inkscape:window-width="1920"
     inkscape:window-height="1117"
     inkscape:window-x="0"
     inkscape:window-y="0"
     inkscape:window-maximized="1"
     inkscape:current-layer="svg6" />
  <defs
     id="defs10">
    <color-profile
       name="SAMSUNG"
       xlink:href="../../../../../../.local/share/icc/edid-df11028a7e0d6d9a4f597c65b3b2575e.icc"
       id="color-profile2220" />
    <rect
       x="178.87279"
       y="170.21478"
       width="468.38007"
       height="143.51808"
       id="rect6873" />
  </defs>
  <g
     id="g2477"
     transform="matrix(0.98421895,0,0,0.98421895,-36.251594,2.9275354)"
     inkscape:export-filename="/home/ubuntu/Documents/GitHub/Haiku Projects/harebnb/react-harebnb/src/harebnb.png"
     inkscape:export-xdpi="400"
     inkscape:export-ydpi="400">
    <g
       id="g4"
       transform="matrix(0.59623126,0,0,0.59623126,58.455356,111.25414)">
      <path
         d="m 224.2504,231.35478 c -1.68938,12.54628 -10.13149,23.40317 -21.95236,28.22792 -5.79116,2.40996 -12.06189,3.13536 -18.33502,2.40996 -6.02973,-0.72298 -12.06187,-2.65337 -18.3326,-6.26831 -8.68552,-4.82957 -17.37103,-12.30528 -27.50252,-23.40317 15.92264,-19.53999 25.56972,-37.39302 29.1895,-53.31083 1.68938,-7.48053 1.93037,-14.23566 1.20739,-20.50881 -0.96399,-6.02972 -3.13537,-11.57987 -6.51414,-16.40463 -7.47812,-10.85448 -20.02199,-17.12761 -34.01424,-17.12761 -13.99226,0 -26.53612,6.51414 -34.014244,17.12761 -3.378771,4.82476 -5.547739,10.37491 -6.514135,16.40463 -0.963986,6.27315 -0.72299,13.26927 1.207393,20.50881 3.617356,15.91781 13.507856,34.01183 29.189496,53.54942 -9.8905,11.10029 -18.817008,18.57841 -27.502521,23.40316 -6.270729,3.61977 -12.30287,5.55015 -18.332602,6.27073 -6.514135,0.7254 -12.787274,-0.241 -18.335013,-2.40996 -11.820876,-4.82475 -20.262984,-15.68405 -21.952368,-28.22792 -0.72299,-6.02974 -0.240997,-12.05946 2.171378,-18.81459 0.722989,-2.41479 1.930382,-4.82235 3.135364,-7.71913 1.689385,-3.85835 3.619767,-7.96252 5.547738,-12.06427 l 0.243408,-0.47959 C 59.48352,156.57117 77.336539,119.90355 95.912547,84.20234 l 0.72299,-1.450799 c 1.930382,-3.614948 3.858353,-7.473301 5.791143,-11.093068 1.92797,-3.860763 4.09935,-7.48053 6.75272,-10.618305 5.06575,-5.791145 11.82088,-8.926509 19.299,-8.926509 7.47812,0 14.23325,3.135364 19.299,8.926509 2.65337,3.137775 4.82475,6.757542 6.75513,10.618305 1.93038,3.619767 3.85835,7.47812 5.78874,11.093068 l 0.7254,1.450799 c 18.3326,35.94221 36.18561,72.60982 52.83124,108.55686 v 0.23859 c 1.93038,3.86076 3.61736,8.20592 5.54774,12.06427 1.20739,2.89678 2.41237,5.30434 3.13537,7.71913 1.93037,6.27072 2.65337,12.30528 1.68938,18.57359 z m -96.25399,-11.33889 c -13.02586,-16.40221 -21.47038,-31.84286 -24.36474,-44.86631 -1.20499,-5.55015 -1.44839,-10.37489 -0.723,-14.71765 0.482,-3.86076 1.93039,-7.23953 3.85836,-10.13631 4.58375,-6.50691 12.30287,-10.6159 21.22938,-10.6159 8.92651,0 16.88662,3.86317 21.22938,10.6159 1.92797,2.89678 3.37636,6.27555 3.85836,10.13631 0.72298,4.34276 0.48199,9.4085 -0.723,14.71765 -2.89436,12.78487 -11.33889,28.22311 -24.36474,44.86631 z m 108.79786,-12.54386 c -1.20498,-2.89437 -2.41237,-6.02973 -3.61736,-8.6831 -1.93038,-4.34035 -3.86077,-8.44452 -5.55015,-12.30528 l -0.24099,-0.23859 C 210.74255,150.05703 192.88953,113.38942 174.07253,77.208622 l -0.723,-1.450799 c -1.93038,-3.619767 -3.86075,-7.480531 -5.78873,-11.338884 -2.41478,-4.345166 -4.82716,-8.9241 -8.68551,-13.269267 -7.72153,-9.649498 -18.81701,-14.956241 -30.63788,-14.956241 -12.06188,0 -22.91636,5.306743 -30.878884,14.476659 -3.617357,4.340346 -6.270728,8.924099 -8.683102,13.269266 -1.930383,3.858354 -3.860764,7.719117 -5.791146,11.338884 l -0.722989,1.443569 C 63.58769,112.90743 45.493675,149.57745 28.848048,185.76307 l -0.240997,0.48199 c -1.689385,3.85835 -3.619767,7.9577 -5.550149,12.30288 -1.204982,2.65577 -2.412374,5.55015 -3.617357,8.6855 -3.137774,8.9241 -4.10176,17.36862 -2.896777,26.05173 2.655781,18.09401 14.717654,33.29366 31.363281,40.04638 6.270729,2.65578 12.784863,3.86076 19.539994,3.86076 1.930382,0 4.342757,-0.241 6.273139,-0.4844 7.960114,-0.96639 16.161223,-3.61495 24.121338,-8.20111 9.8929,-5.54774 19.30141,-13.50785 29.91489,-25.08773 10.61349,11.57988 20.26298,19.53999 29.91249,25.08773 7.96252,4.58616 16.16362,7.23472 24.12374,8.20111 1.93039,0.2434 4.34276,0.4844 6.27314,0.4844 6.75513,0 13.50786,-1.20498 19.53999,-3.86076 16.88662,-6.75272 28.7075,-22.19337 31.36088,-40.04638 1.93038,-8.44452 0.96398,-16.88422 -2.17138,-25.81314 z"
         fill="#e0565b"
         id="path2"
         style="stroke-width:0.874681" />
    </g>
    <path
       style="color:#000000;fill:#e0565b;stroke-linecap:round;stroke-linejoin:bevel;-inkscape-stroke:none"
       d="m 62.515625,0.0625 c -4.55433,0.07600965 -8.806768,0.9978897 -12.566406,2.75 -5.012852,2.336147 -9.102914,6.3053632 -11.226563,11.458984 -2.123648,5.153622 -2.243846,11.292877 -0.296875,17.767578 10.710672,35.618608 25.171147,62.711482 41.910156,81.093748 16.73901,18.38227 36.015503,28.08919 55.597653,27.91016 19.58216,-0.17903 38.88068,-10.23653 55.69141,-29.27734 16.81073,-19.040819 31.39262,-47.106291 42.27344,-84.347661 1.51926,-5.199907 0.77771,-10.540114 -1.79297,-14.746094 C 229.53479,8.4658951 225.37626,5.3991767 220.44922,3.5234375 210.59515,-0.22804092 197.39619,0.5200153 184.05664,7.3808594 164.15479,17.616852 144.28378,41.482999 134.75391,85.630859 126.36083,42.661419 106.74177,17.806302 86.921875,6.8125 78.535586,2.1607505 70.106174,-0.06418276 62.515625,0.0625 Z m 3.673828,10.199219 c 4.803875,0.494762 10.252032,2.131695 15.898438,5.263672 C 103.89146,27.619503 128.44379,61.720674 128.97656,130.61914 114.96832,128.78125 100.9129,120.93236 87.703125,106.42578 72.332597,89.546337 58.36649,63.747867 47.96875,29.169922 c -1.428013,-4.748893 -1.160916,-8.364855 -0.0332,-11.101563 1.127713,-2.736707 3.153627,-4.794345 6.222656,-6.224609 3.069029,-1.430264 7.227375,-2.0767932 12.03125,-1.582031 z m 138.298827,1.18164 c 4.8527,-0.445097 9.12869,0.141083 12.41602,1.392579 3.28732,1.251495 5.51931,3.100762 6.69922,5.031249 1.1799,1.930488 1.55062,3.94875 0.73046,6.75586 -10.58488,36.228481 -24.70027,63.018153 -40.17773,80.548833 -14.38547,16.29382 -29.72163,24.4586 -44.86523,25.6621 3.13059,-71.298978 27.69659,-103.4692 49.32226,-114.591793 5.59348,-2.876856 11.0223,-4.35373 15.875,-4.798828 z"
       id="path1503" />
  </g>
  <text
     xml:space="preserve"
     id="text6871"
     style="font-style:normal;font-weight:normal;font-size:40px;line-height:1.25;font-family:sans-serif;white-space:pre;shape-inside:url(#rect6873);fill:#de565b;fill-opacity:1;stroke:none"
     transform="matrix(1.581013,0,0,1.581013,-109.56007,-141.11128)"
     inkscape:export-filename="/home/ubuntu/Documents/GitHub/Haiku Projects/harebnb/react-harebnb/src/harebnb.png"
     inkscape:export-xdpi="400"
     inkscape:export-ydpi="400"><tspan
       x="178.87305"
       y="262.69531"
       id="tspan2233"><tspan
         style="font-weight:bold;font-size:100px;font-family:Gargi;-inkscape-font-specification:'Gargi, Normal'"
         id="tspan2231">harebnb</tspan></tspan></text>
</svg>
